<?xml version="1.0" standalone="no"?>
<!DOCTYPE svg PUBLIC "-//W3C//DTD SVG 20010904//EN"
 "http://www.w3.org/TR/2001/REC-SVG-20010904/DTD/svg10.dtd">
<svg version="1.0" xmlns="http://www.w3.org/2000/svg"
 width="695.000000pt" height="638.000000pt" viewBox="0 0 695.000000 638.000000"
 preserveAspectRatio="xMidYMid meet">
<metadata>
Created by potrace 1.15, written by Peter Selinger 2001-2017
</metadata>
<g transform="translate(0.000000,638.000000) scale(0.100000,-0.100000)"
fill="#ffffff" stroke="none">
<path d="M3965 4335 c-258 -866 -472 -1575 -475 -1575 -3 0 -219 704 -480
1565 -261 861 -477 1565 -480 1565 -7 0 -821 -2398 -820 -2416 0 -14 1160
-848 1167 -840 3 3 -30 123 -73 267 l-79 262 -282 229 c-156 127 -285 234
-288 238 -7 11 367 1050 375 1045 3 -2 224 -702 490 -1554 266 -853 487 -1551
490 -1551 3 0 219 692 479 1538 260 845 476 1540 479 1544 9 9 364 -990 357
-1003 -4 -5 -142 -123 -308 -263 l-302 -253 -69 -247 c-38 -135 -66 -249 -63
-252 7 -8 1177 856 1177 870 1 18 -813 2406 -820 2406 -3 0 -217 -709 -475
-1575z"/>
<path d="M4716 2946 c-323 -233 -589 -427 -590 -432 0 -5 125 -17 278 -26
l279 -18 226 144 c124 79 229 141 232 137 11 -10 522 -1641 517 -1646 -5 -5
-1539 313 -1546 320 -4 4 67 265 77 281 4 8 37 2 108 -18 l102 -29 163 82
c290 145 354 182 332 191 -25 10 -946 230 -949 226 -6 -8 -295 -921 -295 -931
0 -13 2576 -624 2587 -614 6 7 -918 2757 -927 2757 -3 0 -270 -191 -594 -424z"/>
<path d="M1675 3349 c-41 -112 -944 -2753 -942 -2755 3 -3 2597 586 2605 592
6 4 -281 944 -288 944 -4 0 -57 -115 -119 -257 l-112 -256 30 -99 29 -98 -22
-5 c-60 -15 -1531 -322 -1534 -320 -5 4 513 1675 520 1675 3 0 100 -58 214
-130 164 -103 215 -130 243 -130 89 -1 497 24 504 30 7 6 -1078 805 -1110 817
-7 3 -15 -1 -18 -8z"/>
</g>
</svg>
