<?xml version="1.0" standalone="no"?>
<!DOCTYPE svg PUBLIC "-//W3C//DTD SVG 20010904//EN"
 "http://www.w3.org/TR/2001/REC-SVG-20010904/DTD/svg10.dtd">
<svg version="1.0" xmlns="http://www.w3.org/2000/svg"
 width="486.000000pt" height="446.000000pt" viewBox="0 0 486.000000 446.000000"
 preserveAspectRatio="xMidYMid meet">
<metadata>
Created by potrace 1.15, written by Peter Selinger 2001-2017
</metadata>
<g transform="translate(0.000000,446.000000) scale(0.100000,-0.100000)"
fill="#000000" stroke="none">
<path d="M1597 4453 c-2 -5 -17 -46 -32 -93 -15 -47 -31 -89 -35 -95 -4 -5
-16 -38 -25 -72 -10 -35 -21 -60 -26 -57 -5 3 -6 -2 -3 -10 3 -8 -1 -30 -10
-48 -8 -18 -27 -71 -42 -118 -14 -47 -30 -89 -34 -95 -4 -5 -18 -44 -30 -85
-12 -41 -28 -88 -36 -105 -8 -16 -27 -68 -42 -115 -45 -135 -161 -463 -171
-485 -5 -11 -22 -58 -37 -105 -14 -47 -30 -89 -34 -95 -4 -5 -17 -44 -30 -85
-12 -41 -28 -88 -36 -105 -7 -16 -25 -68 -40 -115 -14 -47 -30 -89 -34 -95 -4
-5 -20 -50 -35 -100 -15 -49 -31 -94 -35 -100 -4 -5 -20 -50 -35 -100 -15 -49
-31 -96 -36 -105 -5 -8 -52 -139 -104 -290 -52 -151 -99 -284 -104 -295 -5
-11 -22 -58 -37 -105 -14 -47 -30 -89 -34 -95 -4 -5 -20 -50 -35 -100 -15 -49
-31 -94 -35 -100 -4 -5 -20 -50 -35 -100 -15 -49 -31 -94 -35 -100 -4 -5 -20
-50 -35 -100 -15 -49 -31 -94 -35 -100 -4 -5 -20 -50 -35 -100 -15 -49 -31
-94 -35 -100 -4 -5 -19 -46 -34 -90 -43 -136 -107 -310 -117 -320 -13 -13 -11
-45 4 -45 6 0 41 7 77 15 201 45 409 88 437 89 17 0 29 3 26 6 -5 5 257 60
302 63 17 1 32 5 35 8 3 3 64 18 135 32 72 15 207 43 300 63 94 20 184 37 202
38 17 0 30 4 28 7 -2 3 58 17 133 32 75 14 214 43 307 63 94 20 184 37 202 38
17 0 29 4 27 7 -2 3 36 13 84 21 80 15 94 15 170 -1 46 -9 80 -19 77 -23 -4
-4 3 -4 15 -1 12 3 31 1 43 -5 12 -6 90 -25 172 -42 319 -67 394 -84 390 -89
-2 -3 11 -7 28 -7 18 -1 102 -18 187 -37 85 -20 211 -48 280 -63 69 -15 127
-30 130 -33 3 -3 16 -7 30 -8 39 -3 274 -54 280 -62 3 -3 16 -6 30 -7 14 -1
36 -4 50 -7 14 -4 74 -17 133 -30 60 -12 106 -24 104 -27 -3 -3 7 -5 21 -6 15
-1 82 -14 150 -29 67 -16 125 -25 129 -22 3 4 -4 33 -16 64 -13 32 -36 101
-53 153 -17 52 -34 100 -38 105 -4 6 -18 44 -30 85 -12 41 -28 89 -35 105 -8
17 -43 116 -78 220 -36 105 -97 282 -137 395 -40 113 -85 246 -101 295 -17 50
-36 104 -44 120 -7 17 -23 64 -35 105 -13 41 -26 80 -30 85 -5 6 -20 51 -35
100 -15 50 -31 95 -35 100 -4 6 -20 50 -35 100 -15 49 -32 96 -37 105 -5 8
-22 56 -38 105 -30 95 -53 161 -170 495 -40 113 -85 246 -102 295 -16 50 -35
104 -42 120 -8 17 -24 62 -35 100 -12 39 -29 85 -37 103 -9 18 -13 40 -10 48
3 8 2 13 -3 10 -5 -3 -14 16 -21 42 -6 26 -18 61 -27 79 -8 17 -27 71 -43 120
-16 48 -48 140 -70 203 -23 63 -42 125 -43 137 -1 12 -4 20 -6 17 -4 -3 -18
36 -108 299 l-47 137 -812 0 c-447 0 -815 -3 -817 -7z m1640 -683 c58 -168
152 -442 210 -610 195 -567 244 -713 241 -720 -2 -5 -165 -126 -363 -270 -198
-144 -383 -280 -411 -301 -28 -22 -53 -39 -56 -39 -5 0 40 172 80 305 l18 60
209 167 c116 92 211 174 213 181 2 8 -9 45 -23 83 -15 38 -69 188 -122 334
-52 146 -99 272 -103 280 -10 18 -3 37 -65 -170 -26 -85 -59 -195 -75 -245
-28 -89 -63 -204 -135 -440 -20 -66 -49 -160 -65 -210 -16 -49 -49 -160 -75
-245 -26 -85 -59 -195 -75 -245 -27 -85 -115 -371 -164 -533 l-22 -74 -68 219
c-37 120 -81 259 -96 308 -28 89 -116 373 -170 550 -15 50 -51 167 -80 260
-29 94 -63 204 -76 245 -12 41 -45 147 -72 235 -27 88 -65 208 -83 268 -17 59
-35 107 -38 107 -3 0 -13 -24 -22 -53 -9 -28 -64 -191 -123 -361 -58 -170
-106 -314 -105 -320 0 -6 87 -82 193 -168 l193 -157 17 -63 c9 -35 31 -118 50
-186 21 -77 29 -121 22 -119 -9 4 -784 565 -805 583 -2 2 49 153 112 336 147
422 349 1007 417 1208 29 85 54 156 55 158 3 4 28 -77 135 -438 45 -151 106
-354 135 -450 29 -96 74 -247 100 -335 25 -88 59 -200 75 -250 15 -49 47 -153
70 -230 22 -77 59 -201 81 -275 22 -74 45 -151 51 -170 5 -19 12 -42 15 -50 3
-8 16 21 28 65 13 44 50 172 84 285 34 113 78 259 97 325 20 66 44 147 54 180
10 33 42 139 70 235 53 181 148 501 250 840 32 107 64 215 71 240 l12 45 15
-35 c8 -19 62 -172 119 -340z m-1815 -1592 c128 -94 304 -223 391 -287 l159
-116 -134 -7 c-73 -3 -158 -9 -188 -12 l-56 -5 -144 89 c-79 50 -147 90 -151
90 -4 0 -14 -21 -23 -47 -24 -76 -117 -374 -216 -693 -50 -162 -100 -322 -111
-354 -10 -33 -17 -62 -14 -64 6 -6 201 34 745 153 91 20 202 44 248 53 66 13
82 19 78 32 -2 8 -12 40 -20 70 l-16 55 77 177 c43 98 81 178 84 178 3 0 18
-42 34 -92 15 -51 58 -190 95 -308 86 -277 84 -267 63 -274 -10 -3 -83 -19
-161 -36 -79 -17 -172 -37 -205 -45 -60 -14 -429 -96 -787 -175 -96 -21 -282
-62 -412 -91 -131 -29 -240 -51 -242 -48 -3 3 21 81 53 174 33 94 109 314 169
490 61 176 172 498 247 715 75 217 148 430 162 473 15 42 30 77 34 77 4 0 112
-77 241 -172z m2301 130 c8 -24 61 -176 117 -338 197 -574 320 -929 424 -1230
58 -168 106 -309 106 -314 0 -10 -36 -4 -215 38 -77 19 -201 47 -275 64 -126
30 -274 64 -635 148 -82 19 -217 51 -300 70 -82 19 -202 47 -265 61 -63 15
-119 30 -123 34 -5 4 7 56 27 115 50 153 163 504 171 532 4 15 12 21 23 18 9
-3 105 -26 212 -52 107 -25 254 -61 325 -79 l130 -32 -180 -89 -181 -89 -74
17 c-41 9 -76 15 -78 13 -6 -6 -51 -168 -52 -186 0 -11 16 -19 58 -27 48 -9
616 -128 921 -192 52 -11 96 -19 98 -17 1 2 -33 118 -77 258 -45 140 -99 313
-121 384 -82 261 -161 510 -164 513 -3 4 -73 -40 -242 -150 l-81 -54 -174 13
c-95 7 -184 14 -198 15 -20 3 -7 15 80 74 92 62 468 337 649 475 35 27 67 49
71 49 4 0 14 -19 23 -42z"/>
</g>
</svg>
