<?xml version="1.0" standalone="no"?>
<!DOCTYPE svg PUBLIC "-//W3C//DTD SVG 20010904//EN"
 "http://www.w3.org/TR/2001/REC-SVG-20010904/DTD/svg10.dtd">
<svg version="1.0" xmlns="http://www.w3.org/2000/svg"
 width="574.000000pt" height="292.000000pt" viewBox="0 0 574.000000 292.000000"
 preserveAspectRatio="xMidYMid meet">
<metadata>
Created by potrace 1.15, written by Peter Selinger 2001-2017
</metadata>
<g transform="translate(0.000000,292.000000) scale(0.100000,-0.100000)"
fill="#66ec23" stroke="none">
<path d="M4810 2887 c-214 -64 -394 -225 -475 -425 -14 -35 -34 -111 -43 -170
l-18 -108 -159 -225 c-87 -123 -185 -263 -219 -311 l-61 -88 -60 0 c-59 0
-146 -20 -236 -55 l-45 -18 -615 247 c-338 136 -753 304 -924 372 -527 212
-483 191 -496 233 -109 336 -492 484 -794 306 -168 -99 -278 -310 -260 -499
20 -211 152 -384 352 -463 60 -24 82 -27 183 -27 116 0 131 3 255 54 28 11 86
-10 1045 -393 l1015 -406 21 -60 c59 -169 184 -288 353 -336 294 -83 599 97
667 393 l16 67 330 240 c181 132 335 243 342 247 7 4 52 12 100 18 318 39 570
269 637 581 19 89 7 257 -25 355 -59 182 -209 347 -392 431 -147 67 -348 83
-494 40z m355 -239 c141 -47 266 -170 307 -303 71 -230 -34 -479 -246 -579
-204 -97 -409 -65 -562 88 -234 235 -167 634 132 776 110 53 245 60 369 18z
m-4052 -106 c44 -22 84 -52 122 -93 31 -34 54 -63 51 -66 -3 -3 -53 15 -113
38 -97 39 -116 44 -188 44 -64 -1 -90 -6 -130 -25 -179 -87 -233 -306 -118
-473 36 -52 90 -87 197 -129 94 -37 96 -48 6 -48 -103 0 -240 64 -300 140 -17
21 -43 65 -58 97 -24 52 -27 70 -27 163 0 119 16 168 81 247 81 99 188 145
325 140 74 -3 96 -8 152 -35z m2832 -1161 c75 -37 147 -111 183 -189 24 -51
27 -69 27 -167 0 -98 -3 -116 -26 -166 -30 -64 -87 -132 -139 -164 -118 -74
-313 -74 -430 0 -36 23 -134 124 -127 132 2 2 33 -10 69 -26 125 -56 194 -74
254 -68 103 11 204 82 255 179 19 35 23 59 24 133 0 76 -4 99 -26 146 -40 84
-82 120 -204 172 -119 50 -118 58 4 52 57 -3 88 -11 136 -34z"/>
<path d="M4872 2560 c-116 -42 -216 -150 -242 -261 -7 -28 -10 -85 -8 -128 6
-97 38 -172 108 -245 184 -194 519 -129 639 124 22 47 26 69 26 145 0 82 -3
97 -32 156 -41 83 -111 150 -201 192 -87 40 -207 48 -290 17z"/>
<path d="M100 572 c-94 -51 -100 -224 -8 -282 15 -9 65 -16 150 -20 141 -7
168 -18 168 -71 0 -51 -26 -59 -202 -59 l-158 0 0 -56 0 -56 200 4 c181 3 202
5 226 24 47 35 67 70 72 127 6 72 -12 121 -55 154 -33 26 -43 27 -170 33 -118
5 -137 8 -149 25 -19 26 -18 51 6 75 18 18 33 20 180 20 l160 0 0 50 0 50
-193 0 c-168 0 -197 -2 -227 -18z"/>
<path d="M640 310 l0 -280 60 0 60 0 0 280 0 280 -60 0 -60 0 0 -280z"/>
<path d="M986 575 c-54 -19 -93 -60 -117 -124 -29 -80 -25 -234 10 -304 45
-93 116 -117 342 -117 l139 0 0 170 0 170 -140 0 -140 0 0 -55 0 -55 75 0 75
0 0 -60 0 -60 -75 0 c-131 0 -168 39 -168 180 -1 147 32 170 238 170 l135 0 0
50 0 50 -167 0 c-116 -1 -180 -5 -207 -15z"/>
<path d="M1460 310 l0 -280 60 0 60 0 2 192 3 193 105 -190 105 -190 78 -3 77
-3 0 281 0 280 -60 0 -60 0 -2 -194 -3 -194 -101 192 -102 191 -81 3 -81 3 0
-281z"/>
<path d="M2280 310 l0 -280 60 0 60 0 0 280 0 280 -60 0 -60 0 0 -280z"/>
<path d="M2520 310 l0 -280 60 0 60 0 2 190 3 190 105 -190 105 -190 78 0 77
0 0 280 0 280 -60 0 -60 0 -2 -196 -3 -196 -104 196 -104 196 -78 0 -79 0 0
-280z"/>
</g>
</svg>
