<?xml version="1.0" standalone="no"?>
<!DOCTYPE svg PUBLIC "-//W3C//DTD SVG 20010904//EN"
 "http://www.w3.org/TR/2001/REC-SVG-20010904/DTD/svg10.dtd">
<svg version="1.0" xmlns="http://www.w3.org/2000/svg"
 width="626.000000pt" height="626.000000pt" viewBox="0 0 626.000000 626.000000"
 preserveAspectRatio="xMidYMid meet">
<metadata>
Created by potrace 1.15, written by Peter Selinger 2001-2017
</metadata>
<g transform="translate(0.000000,626.000000) scale(0.100000,-0.100000)"
fill="#7b7b7b" stroke="none">
<path d="M2775 6209 c-16 -5 -73 -16 -125 -24 -141 -23 -398 -88 -549 -140
-801 -274 -1451 -871 -1801 -1653 -98 -220 -177 -483 -237 -792 -27 -141 -28
-155 -28 -470 0 -315 1 -329 28 -470 141 -730 408 -1252 880 -1723 404 -403
878 -666 1452 -807 88 -22 203 -46 255 -55 52 -8 111 -19 130 -25 46 -13 634
-13 680 0 19 6 78 17 130 25 141 23 398 88 549 140 801 274 1451 871 1801
1653 98 220 177 483 237 792 27 141 28 155 28 470 0 315 -1 329 -28 470 -141
730 -408 1252 -880 1723 -404 403 -878 666 -1452 807 -88 22 -203 46 -255 55
-52 8 -111 19 -130 25 -44 13 -643 12 -685 -1z m622 -219 c201 -23 301 -41
449 -80 1008 -266 1788 -1046 2054 -2054 56 -214 100 -531 100 -726 0 -195
-44 -512 -100 -726 -199 -755 -680 -1380 -1365 -1774 -254 -147 -591 -270
-885 -325 -145 -27 -416 -55 -530 -55 -195 0 -512 44 -726 100 -1008 266
-1788 1046 -2054 2054 -56 214 -100 531 -100 726 0 195 44 512 100 726 132
500 386 942 749 1304 328 327 688 549 1126 695 227 76 352 102 690 144 123 15
318 12 492 -9z"/>
<path d="M3924 5117 c-6 -7 -14 -26 -18 -42 -4 -16 -10 -24 -14 -18 -4 6 -7
-76 -8 -183 0 -107 3 -189 7 -182 6 9 10 7 15 -7 11 -31 46 -65 66 -65 26 0
55 17 132 80 65 53 63 52 88 38 31 -18 88 -79 88 -95 0 -7 5 -13 10 -13 6 0
10 -6 10 -14 0 -7 12 -26 28 -43 125 -134 122 -130 122 -178 0 -25 -5 -45 -11
-45 -5 0 -8 -4 -5 -9 11 -18 -45 -43 -83 -38 -85 12 -99 19 -146 67 -19 18
-25 36 -25 67 0 39 -2 43 -25 43 -14 0 -24 -3 -23 -7 0 -5 -3 -17 -7 -27 -8
-19 -9 -19 -16 0 -5 12 -7 3 -7 -28 1 -27 5 -48 9 -48 4 0 10 -18 14 -40 4
-22 11 -42 16 -46 5 -3 9 -14 9 -25 0 -10 5 -19 10 -19 6 0 10 -6 10 -12 0 -7
34 -45 76 -86 l76 -73 33 25 c18 14 35 22 39 19 3 -4 6 -1 6 4 0 13 97 63 122
63 10 0 18 5 18 10 0 6 13 10 29 10 16 0 31 5 33 11 6 19 248 39 248 20 0 -17
27 -13 34 5 8 21 8 26 -3 20 -4 -3 -19 8 -32 26 -29 38 -86 104 -116 134 -13
13 -23 26 -23 29 0 3 -10 16 -22 29 -46 48 -88 97 -88 103 0 3 -8 13 -18 22
-10 9 -76 84 -147 166 -136 158 -155 178 -231 241 -26 21 -52 44 -58 49 -30
29 -76 55 -96 55 -11 0 -18 5 -15 10 9 15 -98 12 -111 -3z"/>
<path d="M2222 4688 c-4 -4 -37 -12 -72 -18 -36 -5 -85 -15 -110 -21 -25 -6
-62 -13 -82 -16 -21 -3 -38 -9 -38 -14 0 -5 -13 -9 -30 -9 -16 0 -30 -4 -30
-9 0 -5 -9 -13 -20 -16 -33 -10 -24 -48 24 -98 24 -25 46 -44 49 -40 4 3 9 -2
13 -11 3 -9 12 -16 19 -16 7 0 15 -3 17 -8 6 -14 210 -110 288 -136 25 -8 44
-19 43 -24 -1 -4 11 -6 27 -4 20 3 32 -1 35 -10 4 -9 15 -13 29 -11 13 3 30
-2 39 -11 8 -9 32 -16 51 -16 20 0 36 -4 36 -9 0 -5 17 -11 38 -14 20 -3 51
-8 67 -12 17 -3 41 -8 54 -11 20 -4 22 -7 10 -15 -9 -6 -3 -7 18 -3 35 7 87
-2 79 -14 -2 -4 21 -7 52 -8 34 0 57 -5 60 -12 2 -7 25 -12 58 -12 30 0 54 -4
54 -9 0 -5 21 -11 48 -14 46 -5 93 -13 141 -23 20 -4 22 -7 10 -15 -10 -7 -6
-8 14 -3 31 7 100 -3 93 -14 -2 -4 19 -8 47 -8 29 0 53 -6 55 -12 2 -7 23 -12
47 -12 24 0 47 -4 50 -10 3 -5 25 -10 49 -10 23 0 46 -4 51 -9 6 -5 30 -11 55
-14 25 -3 59 -8 75 -12 17 -3 40 -8 53 -11 13 -3 20 -9 16 -15 -4 -8 1 -9 16
-4 28 9 112 -3 105 -16 -4 -5 21 -9 59 -9 35 0 66 4 68 8 5 13 104 82 117 82
6 0 11 5 11 10 0 6 7 10 15 10 8 0 15 3 15 8 0 4 14 16 30 27 16 11 30 26 30
33 0 7 -4 11 -9 8 -5 -3 -24 13 -43 35 -18 23 -39 47 -45 54 -7 8 -13 18 -13
24 0 6 -3 11 -7 11 -5 0 -23 23 -42 50 -19 28 -40 50 -48 50 -7 0 -13 5 -13
10 0 6 -13 10 -30 10 -16 0 -30 5 -30 10 0 6 -7 10 -16 10 -27 0 -114 32 -114
42 0 6 -12 8 -26 5 -14 -2 -31 1 -37 7 -7 6 -30 13 -52 15 -22 1 -41 7 -43 12
-2 5 -21 9 -42 9 -21 0 -42 5 -45 10 -3 6 -17 10 -30 10 -31 0 -56 10 -50 20
3 4 -12 6 -33 3 -25 -3 -43 0 -53 8 -8 8 -32 15 -54 16 -22 2 -41 7 -43 13 -2
5 -19 10 -37 10 -19 0 -36 4 -39 9 -3 5 -23 11 -43 14 -76 11 -118 23 -116 34
2 7 -11 9 -36 6 -24 -3 -43 0 -52 8 -8 8 -30 15 -49 17 -19 1 -36 7 -38 12 -2
6 -24 10 -48 10 -24 0 -44 4 -44 9 0 5 -17 11 -37 14 -21 3 -51 8 -68 12 -16
3 -41 8 -54 11 -20 4 -22 7 -10 15 9 7 2 8 -24 3 -44 -7 -141 5 -114 15 9 3
-57 6 -148 6 -91 0 -169 -3 -173 -7z"/>
<path d="M4690 4180 c0 -5 -14 -10 -31 -10 -17 0 -37 -7 -46 -15 -8 -8 -18
-13 -23 -10 -4 3 -13 -2 -20 -10 -7 -8 -19 -15 -26 -15 -14 0 -54 -19 -64 -31
-3 -3 -20 -12 -37 -20 -18 -8 -33 -17 -33 -21 0 -5 -5 -8 -10 -8 -6 0 -23 -11
-38 -25 -15 -14 -39 -31 -54 -38 -16 -6 -28 -15 -28 -19 0 -5 -6 -8 -14 -8 -8
0 -16 -4 -18 -9 -1 -5 -9 -11 -17 -13 -7 -2 -25 -13 -38 -25 -14 -12 -38 -28
-54 -35 -16 -7 -29 -16 -29 -20 0 -5 -7 -8 -15 -8 -8 0 -15 -4 -15 -10 0 -5
-5 -10 -11 -10 -6 0 -25 -11 -43 -25 -18 -14 -38 -25 -44 -25 -7 0 -12 -4 -12
-10 0 -5 -7 -10 -15 -10 -8 0 -15 -4 -15 -10 0 -5 -5 -10 -11 -10 -6 0 -33
-16 -59 -35 -26 -19 -53 -35 -59 -35 -6 0 -11 -4 -11 -10 0 -5 -7 -10 -15 -10
-8 0 -15 -4 -15 -10 0 -5 -9 -10 -20 -10 -11 0 -20 -4 -20 -10 0 -5 -5 -10
-10 -10 -6 0 -23 -11 -38 -25 -15 -14 -31 -25 -35 -25 -5 0 -29 -14 -55 -32
-26 -18 -49 -31 -51 -29 -2 1 -7 -1 -10 -6 -7 -9 -118 -83 -126 -83 -3 0 -16
-10 -31 -22 -14 -13 -29 -23 -32 -23 -4 0 -28 -15 -54 -33 -26 -17 -51 -32
-56 -32 -6 0 -12 -4 -14 -8 -4 -11 -115 -82 -128 -82 -6 0 -10 -4 -10 -10 0
-5 -7 -10 -15 -10 -8 0 -15 -4 -15 -10 0 -5 -4 -10 -10 -10 -5 0 -32 -16 -59
-35 -26 -19 -53 -35 -60 -35 -6 0 -11 -4 -11 -10 0 -5 -7 -10 -15 -10 -8 0
-15 -4 -15 -10 0 -5 -4 -10 -10 -10 -5 0 -32 -16 -59 -35 -26 -19 -53 -35 -60
-35 -6 0 -11 -4 -11 -10 0 -5 -6 -10 -14 -10 -7 0 -19 -7 -26 -15 -7 -9 -15
-13 -17 -11 -3 3 -17 -6 -31 -20 -15 -13 -32 -24 -39 -24 -7 0 -13 -4 -13 -9
0 -5 -8 -11 -17 -14 -26 -8 -76 -40 -90 -57 -7 -8 -13 -11 -13 -7 0 5 -7 2
-15 -5 -30 -27 -41 -35 -73 -48 -17 -8 -32 -18 -32 -22 0 -5 -7 -8 -15 -8 -8
0 -15 -4 -15 -9 0 -6 -22 -22 -50 -37 -27 -15 -50 -31 -50 -36 0 -4 -6 -8 -14
-8 -7 0 -25 -12 -40 -26 -14 -15 -26 -24 -26 -21 0 11 -154 -147 -170 -173
-80 -139 -97 -221 -65 -324 10 -31 22 -56 26 -56 5 0 9 -6 9 -12 0 -20 139
-148 160 -148 6 0 18 -4 28 -9 9 -6 31 -13 47 -17 23 -5 26 -8 13 -13 -10 -3
30 -6 87 -6 57 0 97 3 88 6 -15 5 -15 6 1 12 10 4 31 7 47 7 16 0 29 5 29 10
0 6 13 10 29 10 16 0 31 3 33 8 4 9 76 51 101 59 9 3 17 9 17 14 0 5 7 9 15 9
8 0 15 5 15 10 0 6 6 10 14 10 8 0 16 4 18 8 4 13 103 82 116 82 6 0 12 4 14
8 2 4 35 30 73 57 39 27 72 53 73 57 2 5 10 8 17 8 7 0 15 4 17 8 5 13 104 82
117 82 6 0 11 3 11 8 0 8 65 54 74 53 3 -1 14 7 24 17 34 31 62 52 71 52 5 0
11 4 13 8 4 10 102 82 112 82 4 0 19 11 33 24 15 14 30 23 35 20 4 -3 8 -1 8
4 0 6 20 23 45 39 25 15 45 31 45 36 0 4 4 7 10 7 5 0 21 9 34 21 13 12 27 20
31 19 4 -1 11 2 14 7 12 19 119 92 125 86 3 -4 6 -1 6 4 0 6 20 24 45 40 25
15 45 31 45 36 0 4 6 7 14 7 8 0 16 3 18 8 5 11 135 102 146 102 6 0 13 7 16
16 4 9 9 14 12 11 5 -5 34 16 70 51 7 6 17 12 23 12 6 0 11 5 11 10 0 6 7 10
15 10 8 0 15 5 15 10 0 6 6 10 14 10 8 0 16 4 18 8 4 12 103 82 116 82 5 0 13
7 16 16 4 9 9 14 12 11 4 -3 12 -1 19 6 33 32 66 57 75 57 6 0 10 5 10 10 0 6
7 10 15 10 8 0 15 5 15 10 0 6 7 10 15 10 8 0 15 3 15 8 0 4 20 21 45 37 24
17 45 33 45 38 0 4 6 7 14 7 8 0 17 7 20 16 3 8 10 12 16 9 5 -3 10 -1 10 4 0
6 18 24 40 40 35 25 135 113 222 193 16 15 28 30 27 33 0 4 7 17 17 29 18 20
31 44 53 99 12 27 21 143 10 125 -6 -9 -10 -7 -15 7 -15 46 -29 75 -36 75 -5
0 -8 6 -8 13 0 19 -108 117 -130 117 -11 0 -20 5 -20 10 0 6 -40 10 -100 10
-60 0 -100 -4 -100 -10z"/>
<path d="M2563 4016 c-24 -24 -43 -49 -43 -55 0 -6 -4 -11 -10 -11 -5 0 -10
-4 -10 -9 0 -9 -63 -118 -80 -138 -5 -7 -10 -24 -10 -38 0 -14 -4 -25 -10 -25
-5 0 -10 -11 -10 -24 0 -28 -15 -43 -24 -24 -3 7 -3 1 0 -14 4 -16 3 -36 0
-45 -6 -15 -8 -15 -17 -3 -6 10 -7 5 -3 -16 4 -20 1 -36 -8 -45 -7 -8 -14 -22
-14 -31 -2 -35 -4 -39 -14 -33 -6 4 -10 -10 -10 -34 0 -23 -4 -41 -10 -41 -5
0 -10 -13 -10 -28 0 -15 -4 -32 -9 -38 -5 -5 -11 -20 -13 -34 -2 -14 -9 -24
-15 -23 -7 2 -10 -4 -7 -12 9 -23 -5 -72 -16 -56 -5 9 -8 -3 -7 -29 1 -26 -4
-45 -11 -48 -7 -2 -12 -19 -12 -37 0 -19 -4 -37 -10 -40 -5 -3 -10 -19 -10
-34 0 -15 -4 -31 -9 -36 -5 -6 -11 -42 -13 -82 -2 -40 -1 -67 3 -61 13 21 21
-14 14 -69 -6 -53 -6 -55 17 -53 38 3 48 1 48 -14 0 -7 7 -19 15 -26 12 -10
15 -10 15 4 0 9 7 16 15 16 8 0 15 5 15 10 0 6 5 10 10 10 6 0 23 11 37 25 15
13 40 29 55 36 15 6 28 15 28 20 0 5 6 9 13 9 16 0 57 86 57 118 0 12 5 22 10
22 6 0 10 15 10 34 0 38 16 57 24 29 2 -10 2 -2 -1 18 -5 36 23 142 36 134 4
-2 6 9 3 24 -2 17 2 34 12 44 9 8 16 29 16 46 0 16 5 33 10 36 6 3 10 19 10
35 0 16 5 32 10 35 6 3 10 19 10 35 0 31 15 48 23 28 3 -7 3 5 0 26 -4 27 -2
42 8 50 8 6 15 27 16 46 1 19 6 36 12 38 15 5 15 319 0 324 -5 2 -11 20 -12
40 -1 20 -5 34 -10 31 -4 -2 -10 3 -13 11 -12 30 -57 18 -101 -28z"/>
<path d="M5120 3801 c0 -11 -7 -26 -15 -35 -9 -8 -15 -19 -15 -23 4 -21 -53
-91 -149 -185 -116 -112 -134 -129 -231 -203 -36 -28 -66 -53 -68 -57 -2 -5
-10 -8 -18 -8 -8 0 -14 -4 -14 -10 0 -5 -4 -10 -10 -10 -9 0 -42 -25 -76 -57
-7 -7 -17 -13 -23 -13 -6 0 -11 -4 -11 -10 0 -5 -6 -10 -14 -10 -8 0 -17 -7
-20 -16 -4 -9 -9 -14 -12 -11 -4 3 -13 -1 -21 -9 -18 -18 -130 -94 -138 -94
-3 0 -18 -11 -33 -25 -15 -14 -39 -31 -54 -37 -28 -13 -43 -35 -51 -78 -3 -14
-9 -35 -12 -47 -6 -17 -3 -23 9 -23 9 0 16 5 16 10 0 6 7 10 15 10 8 0 15 3
15 8 0 4 27 25 60 47 33 22 60 43 60 48 0 4 5 7 11 7 6 0 17 7 26 15 8 9 43
34 77 57 33 23 63 45 64 50 2 4 10 8 18 8 8 0 14 3 14 8 0 4 27 25 60 47 33
22 60 43 60 48 0 4 7 7 15 7 8 0 15 3 15 8 0 4 20 21 45 37 24 17 45 33 45 38
0 4 6 7 14 7 8 0 17 7 20 16 3 8 10 12 16 9 5 -3 10 -2 10 4 0 5 24 27 53 48
28 21 61 47 73 58 11 11 36 34 55 51 36 31 90 104 102 137 4 10 11 16 15 13 4
-2 7 8 6 24 -1 16 4 41 12 55 19 38 19 105 -1 105 -8 0 -15 -9 -15 -19z"/>
<path d="M1254 3435 c-10 -8 -27 -15 -36 -15 -10 0 -18 -4 -18 -10 0 -5 -11
-10 -25 -10 -14 0 -25 -3 -25 -8 0 -4 -18 -18 -40 -32 -22 -14 -40 -28 -40
-33 0 -4 -4 -5 -10 -2 -6 4 -10 -7 -9 -27 0 -27 2 -30 9 -13 7 17 9 16 10 -10
1 -16 15 -52 30 -80 16 -27 41 -75 56 -105 16 -30 32 -59 36 -65 22 -27 58
-87 58 -95 0 -6 3 -10 8 -10 4 0 13 -13 20 -29 7 -16 34 -53 60 -83 26 -30 61
-72 77 -93 17 -21 35 -43 40 -49 6 -6 37 -47 70 -91 58 -77 79 -105 100 -129
6 -6 23 -29 40 -51 16 -22 34 -45 40 -52 5 -7 30 -37 55 -67 68 -82 96 -75
107 29 2 22 9 51 15 65 26 60 43 90 50 90 5 0 8 5 8 11 0 17 129 141 165 159
17 8 36 20 42 27 7 6 18 14 25 17 10 5 10 7 1 12 -7 3 -13 10 -13 16 0 5 -7
16 -15 24 -12 12 -15 12 -15 2 0 -10 -3 -9 -10 2 -15 23 -12 60 5 66 8 4 15
18 15 33 0 19 -3 22 -9 12 -7 -10 -12 -2 -18 30 -6 30 -14 44 -25 44 -9 0 -28
10 -42 23 -16 14 -39 22 -61 22 -31 0 -35 -3 -35 -25 0 -18 5 -25 20 -25 12 0
20 -7 20 -16 0 -19 -48 -64 -68 -64 -7 0 -20 -7 -28 -15 -23 -22 -194 -19
-180 4 3 4 -9 8 -25 9 -32 3 -113 68 -103 83 3 5 1 9 -3 9 -8 0 -34 45 -48 85
-17 46 -28 116 -32 208 -4 88 -6 97 -24 97 -10 0 -19 5 -19 10 0 6 -6 10 -12
10 -7 0 -33 21 -58 47 -43 45 -84 73 -106 73 -5 0 -19 -7 -30 -15z"/>
<path d="M4105 2930 c3 -5 1 -10 -5 -10 -6 0 -23 -11 -38 -25 -15 -14 -30 -25
-35 -25 -4 0 -20 -11 -34 -24 -15 -14 -30 -23 -35 -20 -4 3 -8 1 -8 -4 0 -6
-20 -23 -45 -39 -25 -15 -45 -31 -45 -35 0 -5 -7 -8 -15 -8 -8 0 -15 -4 -15
-10 0 -5 -6 -10 -14 -10 -8 0 -17 -7 -20 -16 -3 -8 -10 -12 -16 -9 -5 3 -10 2
-10 -4 0 -6 -11 -13 -24 -17 -28 -7 -25 -31 8 -79 19 -27 21 -44 21 -169 0
-103 -3 -140 -12 -144 -8 -2 -13 -20 -13 -43 0 -21 -4 -39 -9 -39 -5 0 -11
-17 -14 -37 -3 -21 -10 -58 -16 -83 -5 -25 -14 -65 -20 -90 -6 -25 -10 -49
-11 -55 0 -5 -4 -5 -8 2 -4 6 -7 -14 -7 -45 0 -35 -4 -57 -12 -59 -9 -3 -13
-25 -13 -64 0 -32 -4 -59 -9 -59 -10 0 -15 -60 -27 -273 -6 -123 7 -207 33
-207 7 0 13 5 13 10 0 12 52 94 63 98 4 2 7 12 7 23 0 10 5 19 10 19 6 0 10 9
10 20 0 11 3 20 8 20 4 0 15 20 25 45 11 25 22 45 26 45 4 0 8 10 8 22 1 13 7
24 13 26 5 2 10 10 10 18 0 8 5 24 12 37 24 48 28 57 28 76 0 26 17 36 24 14
2 -10 2 -2 -1 19 -6 41 5 87 16 69 4 -7 8 12 8 41 1 29 6 54 12 56 6 2 11 27
11 58 0 30 4 54 9 54 8 0 11 20 26 165 3 28 8 61 12 75 5 23 6 24 13 5 5 -11
6 4 3 36 -4 41 -1 66 11 89 9 18 16 52 16 75 0 22 4 45 9 51 5 5 12 29 15 54
3 25 10 70 15 100 6 30 13 73 16 95 3 22 9 51 12 65 l6 25 7 -25 c5 -16 7 -4
6 35 0 33 3 68 8 78 6 13 4 17 -9 17 -9 0 -13 -4 -10 -10z"/>
<path d="M4210 2840 c0 -5 -4 -10 -9 -10 -16 0 -69 -54 -79 -80 -22 -58 -24
-118 -5 -147 10 -15 20 -30 23 -33 3 -3 12 -18 20 -35 8 -16 23 -40 34 -51 10
-12 17 -25 17 -28 -1 -4 4 -13 11 -20 27 -28 58 -66 58 -72 0 -17 76 -73 103
-76 l30 -3 -2 -89 -2 -89 41 -38 c34 -32 50 -39 100 -45 54 -6 60 -9 60 -29 0
-13 -3 -31 -7 -41 -6 -16 -7 -16 -12 -1 -3 9 -6 -15 -6 -53 0 -38 3 -62 7 -52
5 13 8 9 13 -15 4 -18 11 -33 16 -33 5 0 9 -7 9 -14 0 -8 16 -27 35 -41 29
-22 43 -26 83 -23 l48 3 -7 -51 c-13 -97 16 -176 72 -196 16 -5 29 -13 29 -16
0 -4 36 -7 79 -7 47 0 79 4 78 10 -1 6 5 10 13 10 10 0 14 -8 12 -22 -3 -20 1
-23 27 -23 34 0 71 30 72 58 0 14 2 14 9 -3 6 -14 9 2 9 50 1 49 -2 65 -9 55
-7 -11 -10 -11 -10 -2 0 17 -120 13 -138 -5 -19 -18 -97 -16 -116 3 -20 20
-21 17 11 72 15 26 39 71 54 101 21 42 28 50 32 35 2 -10 5 1 6 25 0 24 -2 42
-5 39 -7 -8 -50 34 -46 45 1 5 -5 6 -15 3 -10 -3 -40 -10 -68 -17 -27 -6 -70
-20 -94 -31 -100 -45 -109 -2 -27 122 17 25 31 52 33 60 1 8 7 16 12 18 19 6
12 71 -9 92 -17 17 -33 20 -106 20 -47 0 -83 -4 -80 -9 8 -12 -49 -19 -68 -9
-30 17 -13 85 34 135 11 12 20 29 20 38 0 8 5 15 10 15 6 0 10 17 10 39 0 34
-4 40 -31 51 -22 10 -27 15 -17 21 10 7 10 9 0 9 -12 0 -20 -3 -80 -33 -19 -9
-40 -17 -48 -17 -8 0 -14 -4 -14 -10 0 -5 -11 -10 -25 -10 -14 0 -25 5 -25 10
0 6 -7 10 -16 10 -9 0 -14 6 -12 12 3 7 -1 19 -9 26 -7 8 -13 36 -13 68 0 48
4 58 35 90 34 35 45 64 25 64 -5 0 -10 9 -10 20 0 11 -4 20 -8 20 -4 0 -15 12
-24 28 -10 15 -31 43 -47 62 -17 19 -31 38 -31 43 0 4 -13 7 -30 7 -16 0 -30
-4 -30 -10z"/>
<path d="M3672 2615 c-17 -20 -159 -115 -170 -115 -6 0 -13 -7 -16 -16 -4 -9
-9 -14 -12 -11 -4 3 -13 -1 -21 -9 -19 -18 -100 -74 -108 -74 -4 0 -13 -7 -22
-15 -8 -9 -43 -34 -77 -57 -33 -23 -62 -45 -64 -50 -2 -4 -9 -8 -15 -8 -7 0
-23 -10 -37 -22 -14 -13 -37 -29 -52 -37 -16 -8 -28 -18 -28 -23 0 -4 -5 -8
-10 -8 -6 0 -23 -11 -38 -25 -15 -14 -32 -25 -39 -25 -7 0 -13 -4 -13 -10 0
-5 -7 -10 -15 -10 -8 0 -15 -4 -15 -10 0 -5 -7 -10 -15 -10 -8 0 -15 -4 -15
-10 0 -5 -5 -10 -10 -10 -6 0 -23 -11 -38 -25 -15 -14 -39 -31 -54 -38 -16 -6
-28 -15 -28 -19 0 -5 -7 -8 -15 -8 -8 0 -15 -4 -15 -10 0 -5 -6 -10 -14 -10
-8 0 -17 -7 -20 -16 -4 -9 -9 -14 -12 -11 -4 3 -13 -1 -21 -9 -19 -18 -100
-74 -108 -74 -4 0 -13 -7 -22 -15 -8 -9 -20 -14 -27 -12 -6 2 -17 -3 -25 -11
-10 -9 -26 -12 -50 -8 -21 3 -30 2 -23 -3 21 -13 -10 -21 -83 -21 -73 0 -104
8 -83 21 7 5 -2 6 -23 3 -23 -4 -40 -1 -50 7 -8 8 -23 16 -34 17 -11 2 -21 8
-23 13 -2 5 -10 9 -18 9 -18 0 -48 24 -105 83 -50 52 -59 56 -59 27 0 -11 5
-20 10 -20 6 0 10 -10 10 -22 0 -12 3 -19 6 -16 3 3 24 -15 47 -40 69 -76 86
-92 97 -92 5 0 10 -4 10 -10 0 -5 6 -10 14 -10 26 0 27 -18 1 -46 -14 -15 -25
-33 -25 -40 0 -7 -6 -11 -14 -8 -8 3 -25 -10 -42 -32 -28 -37 -29 -38 -29
-191 0 -85 2 -146 6 -136 5 16 7 15 13 -7 17 -60 67 -130 93 -130 7 0 13 -4
13 -10 0 -6 28 -10 65 -10 37 0 65 4 65 10 0 6 6 10 14 10 21 0 76 61 76 84 0
17 2 18 10 6 7 -11 10 1 10 42 0 31 -4 58 -10 60 -5 2 -11 35 -12 73 -2 39 -7
73 -13 77 -5 4 -10 26 -10 48 0 23 -1 37 -3 31 -6 -18 -22 -12 -22 8 0 10 -9
21 -20 24 -14 4 -20 14 -20 35 0 17 -6 32 -15 36 -35 13 -9 21 73 21 80 0 163
16 187 37 5 4 17 8 27 8 10 0 18 5 18 10 0 6 4 10 9 10 6 0 22 11 37 25 14 13
39 30 55 37 16 7 29 16 29 20 0 5 7 8 15 8 8 0 15 5 15 10 0 6 7 10 15 10 8 0
15 5 15 10 0 6 5 10 11 10 6 0 17 6 24 13 33 29 45 37 55 37 5 0 10 5 10 10 0
6 7 10 15 10 8 0 15 5 15 10 0 6 7 10 15 10 8 0 15 4 15 8 0 5 16 17 35 28 19
10 35 22 35 26 0 5 6 8 13 8 7 0 23 9 35 20 12 11 26 20 32 20 5 0 10 4 10 9
0 5 13 14 28 20 15 7 40 23 55 36 14 14 29 25 32 25 3 0 84 54 180 120 95 66
178 120 183 120 5 0 13 7 16 16 4 9 9 14 12 11 4 -3 13 1 21 9 22 22 100 74
111 74 16 0 23 47 10 74 -13 29 -27 32 -46 11z m-1582 -1103 c0 -5 16 -17 35
-28 19 -10 35 -21 35 -25 0 -3 18 -6 40 -6 21 0 37 4 34 8 -2 4 5 10 16 14 11
3 20 11 20 16 0 6 5 7 10 4 6 -4 8 -11 5 -16 -4 -5 -1 -9 4 -9 7 0 11 -41 11
-114 l0 -115 -29 -20 c-19 -14 -45 -21 -73 -21 -37 0 -48 5 -64 28 -22 31 -36
61 -53 113 -14 44 -15 179 -1 179 6 0 10 -4 10 -8z"/>
</g>
</svg>
