<?xml version="1.0" standalone="no"?>
<!DOCTYPE svg PUBLIC "-//W3C//DTD SVG 20010904//EN"
 "http://www.w3.org/TR/2001/REC-SVG-20010904/DTD/svg10.dtd">
<svg version="1.0" xmlns="http://www.w3.org/2000/svg"
 width="500.000000pt" height="392.000000pt" viewBox="0 0 500.000000 392.000000"
 preserveAspectRatio="xMidYMid meet">
<metadata>
Created by potrace 1.15, written by Peter Selinger 2001-2017
</metadata>
<g transform="translate(0.000000,392.000000) scale(0.100000,-0.100000)"
fill="#000000" stroke="none">
<path d="M3738 3913 c-1 -5 -22 -18 -45 -30 -40 -22 -53 -23 -270 -23 -125 0
-255 -4 -288 -9 -33 -5 -109 -12 -169 -15 -60 -4 -114 -10 -120 -15 -6 -4 -50
-13 -98 -20 -48 -6 -118 -20 -157 -30 -39 -9 -71 -15 -71 -11 0 13 -61 40 -92
40 -40 0 -284 -47 -307 -59 -9 -5 -33 -11 -54 -15 -46 -9 -77 8 -150 80 -39
38 -81 55 -127 53 -32 -2 -88 -25 -100 -40 -3 -4 -72 -12 -153 -19 -120 -10
-156 -10 -187 0 -51 17 -155 8 -202 -16 -34 -17 -148 -142 -148 -162 0 -5 -11
-19 -25 -32 -14 -13 -25 -27 -25 -32 0 -5 -18 -32 -40 -61 -22 -29 -52 -69
-67 -90 -16 -21 -36 -47 -45 -58 -10 -10 -18 -21 -18 -24 0 -5 -70 -106 -80
-115 -3 -3 -22 -30 -42 -60 -21 -30 -60 -88 -88 -128 -27 -40 -50 -77 -50 -82
0 -6 -7 -10 -15 -10 -8 0 -14 -3 -13 -7 2 -12 -34 -83 -43 -83 -6 0 -29 -32
-65 -92 -6 -10 -18 -26 -26 -35 -9 -10 -28 -41 -43 -70 -14 -28 -33 -57 -41
-64 -8 -6 -14 -16 -14 -21 0 -5 -16 -35 -37 -66 -20 -31 -46 -73 -58 -92 -12
-19 -37 -60 -56 -90 -20 -30 -42 -68 -49 -85 -8 -16 -25 -44 -37 -61 -27 -36
-30 -95 -9 -165 13 -41 12 -48 -1 -62 -14 -14 -14 -22 0 -79 14 -55 14 -66 2
-85 -18 -26 -20 -129 -5 -169 6 -15 20 -34 30 -41 14 -10 20 -26 20 -53 0
-120 29 -218 69 -231 8 -3 14 -44 18 -112 3 -59 9 -107 13 -107 4 0 11 -53 15
-117 3 -65 10 -158 15 -207 9 -83 11 -91 42 -117 45 -39 121 -81 196 -108 34
-13 62 -27 62 -31 0 -4 13 -10 30 -13 16 -4 58 -19 92 -35 35 -16 81 -35 103
-42 22 -7 63 -23 90 -35 28 -13 69 -28 92 -34 23 -6 48 -17 55 -24 7 -8 36
-19 63 -26 28 -7 66 -21 85 -31 19 -10 69 -30 110 -43 155 -51 255 -87 270
-95 8 -5 54 -19 103 -32 48 -13 87 -26 87 -30 0 -4 14 -10 31 -14 17 -3 28
-10 24 -16 -4 -6 35 -10 111 -10 65 0 115 2 112 5 -3 3 8 19 24 35 24 24 42
31 111 41 45 7 87 16 92 20 20 14 130 29 224 29 53 1 143 7 201 15 201 27 375
56 403 67 45 17 75 62 82 121 l7 54 71 17 c40 10 128 30 197 44 69 15 130 30
136 34 6 4 69 19 140 34 l129 27 210 -17 c116 -9 223 -16 238 -16 31 0 305
129 332 156 26 27 141 54 226 54 43 0 79 3 81 8 2 4 20 19 40 35 46 34 44 26
58 342 7 138 12 266 13 285 1 19 9 40 17 47 12 9 16 43 18 162 l4 150 -39 10
c-21 5 -78 14 -128 21 -49 6 -99 15 -110 20 -11 5 -114 20 -230 35 -115 14
-250 32 -300 39 -49 8 -160 21 -245 31 -85 9 -162 20 -170 24 -8 4 -35 8 -60
10 -25 1 -61 6 -80 11 -29 8 -281 30 -344 30 -18 0 -18 1 -2 19 9 10 34 74 56
142 l40 125 38 -4 c33 -3 42 0 60 25 12 15 26 33 31 39 4 5 14 21 21 35 7 13
31 43 54 66 31 33 49 43 73 43 23 0 37 7 52 29 12 16 21 36 21 44 0 9 5 19 10
22 6 3 10 13 10 22 0 8 23 39 52 68 44 46 56 53 80 48 52 -10 97 38 112 119 4
22 24 57 49 87 l42 50 55 -5 c47 -5 58 -3 78 15 12 12 22 30 22 40 0 10 7 35
15 54 8 20 15 47 15 60 0 24 40 86 65 100 9 4 27 2 44 -8 48 -24 86 -19 115
16 28 33 33 73 17 143 -10 39 -8 43 32 88 43 47 43 90 -1 138 -9 10 -25 29
-34 43 -10 14 -32 28 -50 31 -23 5 -45 22 -73 56 -22 28 -47 50 -56 50 -9 0
-36 25 -60 55 -24 30 -54 57 -66 61 -13 3 -23 10 -23 15 0 16 -100 10 -116 -6
-11 -11 -38 -15 -95 -15 -62 0 -81 3 -85 15 -5 11 -23 15 -79 15 -40 0 -75 -3
-77 -7z"/>
</g>
</svg>
