<?xml version="1.0" standalone="no"?>
<!DOCTYPE svg PUBLIC "-//W3C//DTD SVG 20010904//EN"
 "http://www.w3.org/TR/2001/REC-SVG-20010904/DTD/svg10.dtd">
<svg version="1.0" xmlns="http://www.w3.org/2000/svg"
 width="626.000000pt" height="626.000000pt" viewBox="0 0 626.000000 626.000000"
 preserveAspectRatio="xMidYMid meet">
<metadata>
Created by potrace 1.15, written by Peter Selinger 2001-2017
</metadata>
<g transform="translate(0.000000,626.000000) scale(0.100000,-0.100000)"
fill="#7b7b7b" stroke="none">
<path d="M2775 6209 c-16 -5 -73 -16 -125 -24 -141 -23 -398 -88 -549 -140
-801 -274 -1451 -871 -1801 -1653 -98 -220 -177 -483 -237 -792 -27 -141 -28
-155 -28 -470 0 -315 1 -329 28 -470 141 -730 408 -1252 880 -1723 404 -403
878 -666 1452 -807 88 -22 203 -46 255 -55 52 -8 111 -19 130 -25 46 -13 634
-13 680 0 19 6 78 17 130 25 141 23 398 88 549 140 801 274 1451 871 1801
1653 98 220 177 483 237 792 27 141 28 155 28 470 0 315 -1 329 -28 470 -141
730 -408 1252 -880 1723 -404 403 -878 666 -1452 807 -88 22 -203 46 -255 55
-52 8 -111 19 -130 25 -44 13 -643 12 -685 -1z m622 -219 c201 -23 301 -41
449 -80 1008 -266 1787 -1044 2054 -2054 28 -108 73 -336 67 -342 -2 -2 -52 1
-113 7 -60 6 -149 14 -199 19 -49 5 -205 18 -345 30 -140 11 -318 27 -395 35
-208 21 -317 19 -364 -4 -106 -55 -312 -78 -404 -47 -26 9 -52 16 -58 16 -21
0 -100 38 -274 130 -173 93 -263 133 -395 177 -25 8 -74 26 -110 40 -63 24
-95 37 -207 82 -28 12 -62 21 -75 21 -13 0 -47 9 -76 20 -117 45 -240 51
-1232 62 -731 9 -947 8 -990 -1 -60 -14 -320 -27 -320 -17 0 3 17 50 39 104
150 375 356 689 640 972 328 327 688 549 1126 695 227 76 352 102 690 144 123
15 318 12 492 -9z m-2676 -2659 c17 -13 46 -20 99 -23 67 -5 80 -2 119 20 44
24 45 24 77 7 25 -13 43 -16 71 -10 21 3 58 11 83 15 25 5 193 9 373 9 l329 1
28 -30 c22 -24 36 -30 70 -30 50 0 68 -9 144 -72 45 -37 65 -48 80 -43 62 19
66 18 125 -33 90 -78 198 -147 256 -163 17 -4 57 -18 90 -30 53 -19 75 -21
186 -17 105 4 134 8 168 26 23 12 48 22 56 22 46 0 125 117 125 186 0 21 10
44 27 66 42 50 56 59 83 53 14 -3 70 -15 125 -26 106 -20 189 -50 244 -86 19
-13 37 -23 41 -23 17 0 207 -154 246 -200 59 -69 127 -174 162 -250 59 -128
72 -161 72 -177 0 -9 7 -25 17 -35 31 -35 115 -22 483 72 61 15 99 32 135 59
79 59 67 59 215 2 30 -12 64 -26 75 -31 11 -5 52 -21 90 -36 39 -14 93 -36
120 -49 28 -13 100 -45 160 -70 226 -96 365 -159 365 -167 0 -18 -82 -233
-127 -333 -275 -613 -807 -1144 -1423 -1420 -205 -92 -455 -172 -660 -210
-145 -27 -416 -55 -530 -55 -195 0 -512 44 -726 100 -1008 266 -1788 1046
-2054 2054 -75 286 -118 692 -94 894 l7 52 222 0 c202 0 224 -2 246 -19z
m2106 -42 c65 -24 107 -89 108 -164 0 -43 3 -50 20 -50 14 0 22 11 30 42 14
57 30 73 50 47 22 -29 18 -79 -9 -110 -19 -23 -35 -29 -92 -36 -111 -14 -195
-11 -272 11 -82 22 -137 53 -153 83 -18 34 -13 95 11 125 43 54 67 63 177 63
56 0 114 -5 130 -11z"/>
</g>
</svg>
