<?xml version="1.0" standalone="no"?>
<!DOCTYPE svg PUBLIC "-//W3C//DTD SVG 20010904//EN"
 "http://www.w3.org/TR/2001/REC-SVG-20010904/DTD/svg10.dtd">
<svg version="1.0" xmlns="http://www.w3.org/2000/svg"
 width="626.000000pt" height="626.000000pt" viewBox="0 0 626.000000 626.000000"
 preserveAspectRatio="xMidYMid meet">
<metadata>
Created by potrace 1.15, written by Peter Selinger 2001-2017
</metadata>
<g transform="translate(0.000000,626.000000) scale(0.100000,-0.100000)"
fill="#7b7b7b" stroke="none">
<path d="M2785 6209 c-16 -5 -73 -16 -125 -24 -141 -23 -398 -88 -549 -140
-801 -274 -1451 -871 -1801 -1653 -98 -220 -177 -483 -237 -792 -27 -141 -28
-155 -28 -470 0 -315 1 -329 28 -470 141 -730 408 -1252 880 -1723 404 -403
878 -666 1452 -807 88 -22 203 -46 255 -55 52 -8 111 -19 130 -25 46 -13 634
-13 680 0 19 6 78 17 130 25 141 23 398 88 549 140 801 274 1451 871 1801
1653 98 220 177 483 237 792 27 141 28 155 28 470 0 315 -1 329 -28 470 -141
730 -408 1252 -880 1723 -404 403 -878 666 -1452 807 -88 22 -203 46 -255 55
-52 8 -111 19 -130 25 -44 13 -643 12 -685 -1z m622 -219 c201 -23 301 -41
449 -80 1008 -266 1788 -1046 2054 -2054 56 -214 100 -531 100 -726 0 -195
-44 -512 -100 -726 -199 -755 -680 -1380 -1365 -1774 -254 -147 -591 -270
-885 -325 -145 -27 -416 -55 -530 -55 -195 0 -512 44 -726 100 -1008 266
-1788 1046 -2054 2054 -56 214 -100 531 -100 726 0 195 44 512 100 726 132
500 386 942 749 1304 328 327 688 549 1126 695 227 76 352 102 690 144 123 15
318 12 492 -9z"/>
<path d="M2015 4802 c-3 -4 -29 -7 -58 -8 -29 -1 -52 -3 -52 -4 0 -2 -38 -7
-115 -14 -47 -4 -94 -11 -135 -20 -5 -2 -28 -8 -50 -14 -22 -6 -51 -13 -65
-16 -31 -6 -46 -10 -140 -36 -41 -11 -83 -22 -92 -25 -9 -2 -26 -9 -37 -15
-12 -6 -21 -8 -21 -4 0 3 -6 2 -13 -4 -7 -6 -35 -18 -62 -27 -52 -17 -74 -26
-165 -69 -30 -14 -59 -26 -63 -26 -4 0 -25 -11 -48 -25 -22 -14 -45 -23 -51
-19 -6 4 -8 3 -4 -4 6 -10 -30 -28 -46 -24 -5 1 -8 -3 -8 -8 0 -6 -7 -10 -15
-10 -8 0 -15 -4 -15 -10 0 -5 -3 -9 -8 -8 -11 3 -72 -32 -72 -42 0 -5 -13 -17
-30 -27 -21 -12 -30 -25 -30 -43 0 -36 6 -40 43 -29 18 4 43 10 57 13 29 6 63
13 105 22 17 4 44 8 60 9 17 2 48 6 70 9 121 18 399 25 515 12 113 -11 185
-22 185 -26 0 -1 11 -3 25 -5 34 -4 67 -11 120 -25 25 -7 50 -13 55 -14 6 -1
16 -5 23 -9 6 -5 12 -5 12 -1 0 3 7 1 15 -6 8 -7 15 -9 15 -5 0 4 7 2 15 -5 8
-7 15 -9 15 -5 0 4 7 2 15 -5 8 -7 15 -9 15 -5 0 4 7 2 15 -5 8 -7 15 -9 15
-5 0 4 7 2 15 -5 8 -7 15 -9 15 -5 0 5 9 0 20 -10 11 -10 20 -15 20 -10 0 4 7
2 15 -5 8 -7 15 -9 15 -5 0 5 9 0 21 -11 12 -10 23 -18 25 -16 7 5 97 -38 116
-55 10 -9 18 -13 18 -9 0 4 12 -2 26 -13 15 -12 32 -21 39 -21 6 0 20 -9 30
-20 10 -11 23 -20 29 -20 19 0 253 -194 340 -283 112 -113 226 -265 226 -303
0 -10 15 -48 33 -84 31 -62 34 -65 67 -64 19 1 46 5 60 9 14 4 41 8 61 10 20
1 42 6 50 10 7 5 25 9 39 10 14 1 31 5 38 9 7 4 16 5 21 1 5 -3 12 -1 16 4 8
14 165 7 195 -9 14 -7 33 -19 43 -28 9 -8 17 -11 17 -6 0 18 71 -69 97 -119
32 -61 39 -152 17 -217 -17 -49 -15 -104 4 -106 6 -1 14 -3 17 -4 3 -1 10 -4
15 -5 6 -1 12 -4 15 -5 3 -1 9 -3 13 -4 20 -3 123 -91 141 -120 40 -64 62
-138 63 -207 0 -37 -3 -73 -8 -80 -4 -8 -9 -20 -11 -29 -1 -8 -5 -29 -9 -45
-4 -23 -1 -35 15 -49 12 -11 21 -16 21 -11 0 4 7 1 17 -6 9 -8 17 -12 18 -9 3
9 94 -65 95 -77 0 -6 3 -13 8 -15 4 -1 18 -24 31 -50 18 -37 23 -62 23 -118 0
-40 -5 -77 -11 -83 -6 -6 -11 -25 -11 -43 0 -30 -28 -82 -70 -126 -11 -12 -22
-30 -26 -40 -3 -10 -10 -18 -15 -18 -6 0 -7 -5 -4 -10 3 -6 -1 -13 -10 -16 -8
-4 -14 -11 -13 -18 1 -6 -6 -29 -16 -51 -32 -73 -35 -194 -10 -308 16 -73 59
-155 111 -213 35 -38 133 -119 133 -108 0 4 9 -1 20 -11 11 -10 20 -15 20 -10
0 4 6 3 13 -3 6 -6 15 -11 20 -11 4 -1 8 -1 10 -2 19 -8 105 -10 245 -5 69 2
85 -1 98 -16 9 -9 20 -16 24 -13 3 2 23 -9 43 -26 l36 -30 21 21 c11 11 20 18
20 15 0 -3 9 -1 20 5 23 13 35 38 56 125 20 78 53 194 64 220 4 11 16 42 25
69 10 26 38 89 62 139 l44 90 -14 45 c-15 44 -15 45 10 66 63 52 63 52 56 108
-5 51 -26 99 -41 96 -15 -3 -42 15 -42 28 0 7 9 18 20 24 13 7 20 21 20 41 0
29 -9 38 -47 43 -24 4 -29 37 -8 52 27 20 16 66 -20 83 -41 19 -46 31 -24 54
33 36 18 81 -31 90 -33 7 -39 27 -15 51 31 30 6 89 -34 81 -27 -5 -34 32 -14
66 16 27 16 31 -17 106 -55 127 -201 423 -247 499 -24 39 -43 76 -43 82 0 6
-3 12 -7 14 -5 2 -17 19 -27 38 -11 19 -67 106 -125 193 -105 159 -152 213
-177 203 -8 -3 -13 -2 -13 2 5 31 -29 49 -52 28 -11 -9 -11 -8 0 6 17 23 4 41
-24 34 -19 -5 -22 -2 -18 12 5 21 -22 49 -32 32 -10 -16 -25 -12 -19 5 8 21
-15 48 -30 36 -8 -7 -12 -2 -11 17 0 17 -5 26 -13 24 -7 -1 -17 10 -22 24 -8
19 -16 25 -29 21 -14 -3 -18 -1 -14 9 3 8 2 21 -1 29 -5 13 -10 14 -28 4 -20
-10 -21 -10 -12 2 8 9 9 22 3 37 -7 19 -12 21 -29 12 -19 -10 -20 -10 -8 10
11 17 11 22 -2 30 -8 5 -21 7 -29 5 -11 -5 -12 -3 -1 10 16 20 5 49 -18 43
-13 -4 -17 2 -17 26 0 19 -5 30 -12 28 -7 -1 -13 7 -13 18 0 30 -46 127 -81
171 -44 56 -61 63 -101 41 -18 -10 -38 -18 -45 -18 -6 1 -43 27 -82 59 -38 31
-74 57 -79 57 -5 0 -25 12 -45 28 -38 29 -95 63 -101 59 -2 -1 -12 5 -22 14
-11 9 -35 22 -54 29 -19 7 -43 20 -54 29 -10 9 -21 15 -25 15 -3 -1 -15 2 -26
6 -11 4 -23 7 -26 6 -4 0 -16 8 -28 18 -12 11 -21 16 -21 11 0 -4 -7 -2 -15 5
-8 7 -15 9 -15 5 0 -4 -7 -2 -15 5 -8 7 -15 9 -15 5 0 -4 -7 -2 -15 5 -8 7
-15 9 -15 5 0 -4 -7 -2 -15 5 -8 7 -15 9 -15 5 0 -4 -7 -2 -15 5 -8 7 -15 9
-15 5 0 -4 -7 -1 -17 6 -9 8 -18 13 -20 12 -1 -2 -5 -2 -8 -2 -3 1 -9 3 -15 4
-5 1 -11 3 -12 4 -3 2 -15 5 -63 15 -5 1 -14 4 -20 8 -5 3 -26 9 -45 14 -50
11 -50 11 -52 14 -2 1 -14 3 -28 5 -14 1 -41 6 -60 9 -19 4 -53 9 -75 12 -38
4 -80 11 -80 14 0 1 -155 11 -220 14 -27 1 -61 -1 -75 -5 -14 -3 -37 -2 -52 2
-15 4 -29 4 -33 1z m2695 -2998 c62 -22 107 -70 152 -161 25 -52 30 -74 30
-135 0 -95 -31 -179 -84 -230 -21 -21 -35 -38 -31 -38 30 0 -124 -106 -169
-116 -13 -3 -34 -8 -48 -11 -37 -8 -124 -4 -137 7 -2 2 -7 4 -13 5 -5 1 -12 4
-15 5 -3 1 -9 3 -15 4 -23 3 -113 85 -139 126 -39 62 -54 112 -53 184 0 61 28
160 54 192 35 44 89 90 100 87 5 -2 8 1 8 6 0 12 96 71 104 64 3 -3 12 0 20 6
39 33 153 35 236 5z"/>
</g>
</svg>
