<?xml version="1.0" standalone="no"?>
<!DOCTYPE svg PUBLIC "-//W3C//DTD SVG 20010904//EN"
 "http://www.w3.org/TR/2001/REC-SVG-20010904/DTD/svg10.dtd">
<svg version="1.0" xmlns="http://www.w3.org/2000/svg"
 width="626.000000pt" height="626.000000pt" viewBox="0 0 626.000000 626.000000"
 preserveAspectRatio="xMidYMid meet">
<metadata>
Created by potrace 1.15, written by Peter Selinger 2001-2017
</metadata>
<g transform="translate(0.000000,626.000000) scale(0.100000,-0.100000)"
fill="#7b7b7b" stroke="none">
<path d="M2775 6209 c-16 -5 -73 -16 -125 -24 -141 -23 -398 -88 -549 -140
-801 -274 -1451 -871 -1801 -1653 -98 -220 -177 -483 -237 -792 -27 -141 -28
-155 -28 -470 0 -315 1 -329 28 -470 141 -730 408 -1252 880 -1723 404 -403
878 -666 1452 -807 88 -22 203 -46 255 -55 52 -8 111 -19 130 -25 46 -13 634
-13 680 0 19 6 78 17 130 25 141 23 398 88 549 140 801 274 1451 871 1801
1653 98 220 177 483 237 792 27 141 28 155 28 470 0 315 -1 329 -28 470 -141
730 -408 1252 -880 1723 -404 403 -878 666 -1452 807 -88 22 -203 46 -255 55
-52 8 -111 19 -130 25 -44 13 -643 12 -685 -1z m622 -219 c201 -23 301 -41
449 -80 1008 -266 1788 -1046 2054 -2054 56 -214 100 -531 100 -726 0 -195
-44 -512 -100 -726 -199 -755 -680 -1380 -1365 -1774 -254 -147 -591 -270
-885 -325 -145 -27 -416 -55 -530 -55 -195 0 -512 44 -726 100 -1008 266
-1788 1046 -2054 2054 -56 214 -100 531 -100 726 0 195 44 512 100 726 132
500 386 942 749 1304 328 327 688 549 1126 695 227 76 352 102 690 144 123 15
318 12 492 -9z"/>
<path d="M4690 4344 c0 -13 6 -24 13 -24 6 0 4 -5 -5 -11 -12 -6 -18 -22 -18
-43 0 -64 1 -64 -275 -71 -386 -10 -475 -10 -1982 -7 l-1412 2 4 30 c4 26 0
33 -23 41 -35 14 -105 6 -137 -15 -16 -11 -25 -26 -25 -43 0 -24 -3 -25 -33
-20 -26 4 -37 1 -48 -14 -7 -10 -21 -19 -31 -19 -10 0 -15 -5 -12 -13 2 -7 -5
-22 -16 -34 -11 -12 -17 -29 -14 -37 3 -9 2 -16 -4 -16 -6 0 -9 -52 -9 -135 0
-78 4 -135 10 -135 5 0 7 -6 4 -14 -3 -7 0 -19 6 -25 7 -7 11 -43 10 -91 -1
-50 2 -80 8 -80 6 0 8 -12 4 -29 -3 -16 -2 -32 4 -35 6 -4 8 -12 5 -20 -3 -7
0 -24 5 -38 l10 -26 545 4 546 3 14 -34 15 -35 329 0 328 0 55 -28 c120 -62
132 -78 149 -194 32 -213 66 -296 158 -385 34 -32 91 -65 109 -62 5 1 10 0 13
-1 3 -1 138 -4 301 -6 163 -2 303 -6 312 -10 9 -3 24 -4 32 0 8 3 15 0 15 -5
0 -6 9 -9 20 -6 11 3 20 1 20 -4 0 -4 6 -6 14 -3 15 6 93 -81 119 -133 10 -18
23 -46 31 -61 21 -40 108 -370 102 -381 -4 -5 -2 -13 4 -16 6 -4 8 -15 5 -26
-4 -10 -2 -19 3 -19 6 0 8 -9 5 -20 -3 -12 0 -20 7 -20 7 0 9 -8 5 -20 -4 -12
-2 -20 5 -20 7 0 9 -8 5 -20 -3 -11 -2 -20 2 -20 5 0 9 -16 10 -35 1 -20 6
-41 12 -49 6 -7 9 -15 6 -18 -3 -2 0 -20 6 -39 5 -19 12 -43 14 -54 31 -153
70 -302 81 -311 8 -6 14 -30 14 -53 0 -26 4 -40 10 -36 6 3 10 2 10 -4 0 -6
164 -10 475 -11 l474 0 -10 30 c-6 16 -15 33 -20 36 -22 13 -5 24 40 24 40 0
53 4 65 22 23 33 20 72 -23 285 -22 105 -37 201 -34 212 3 13 1 21 -7 21 -8 0
-10 9 -6 25 4 15 2 25 -4 25 -6 0 -8 10 -4 25 4 16 2 25 -6 25 -7 0 -9 8 -5
20 4 12 1 27 -5 35 -6 8 -9 19 -5 25 3 5 3 15 -1 22 -4 7 -9 21 -10 32 -6 59
-17 116 -73 402 -34 171 -61 324 -61 340 1 75 42 210 82 267 15 21 119 127
125 127 8 0 160 105 186 129 15 13 27 33 27 43 0 10 4 18 9 18 11 0 6 180 -8
260 -6 35 -29 101 -51 147 -42 85 -80 132 -162 197 -49 38 -59 56 -33 56 20 0
19 17 -2 29 -10 6 -12 11 -5 11 20 0 14 20 -10 30 -14 5 -17 9 -8 10 12 0 11
3 -2 11 -10 5 -18 17 -18 25 0 11 -6 13 -20 9 -14 -4 -20 -2 -20 9 0 11 -11
14 -50 13 -29 -1 -52 -7 -55 -14 -2 -7 -11 -10 -20 -7 -10 4 -15 0 -15 -10 0
-9 -7 -16 -15 -16 -8 0 -15 -5 -15 -11 0 -22 -26 -35 -61 -31 -44 5 -59 30
-59 100 0 52 -7 66 -32 68 -13 1 -18 -5 -18 -22z m-1322 -1011 c-46 -48 -50
-74 -27 -160 25 -90 23 -196 -5 -254 -9 -20 -39 -61 -66 -92 -28 -30 -50 -58
-50 -61 0 -3 51 -6 113 -7 90 -1 105 -3 77 -11 -19 -5 -107 -10 -195 -10 -140
0 -167 2 -216 21 -99 38 -194 151 -192 228 1 18 -3 33 -8 33 -13 0 -11 57 2
66 6 3 8 16 5 28 -9 36 35 110 97 164 85 74 111 80 316 81 l175 1 -26 -27z"/>
</g>
</svg>
