<?xml version="1.0" standalone="no"?>
<!DOCTYPE svg PUBLIC "-//W3C//DTD SVG 20010904//EN"
 "http://www.w3.org/TR/2001/REC-SVG-20010904/DTD/svg10.dtd">
<svg version="1.0" xmlns="http://www.w3.org/2000/svg"
 width="626.000000pt" height="626.000000pt" viewBox="0 0 626.000000 626.000000"
 preserveAspectRatio="xMidYMid meet">
<metadata>
Created by potrace 1.15, written by Peter Selinger 2001-2017
</metadata>
<g transform="translate(0.000000,626.000000) scale(0.100000,-0.100000)"
fill="#7b7b7b" stroke="none">
<path d="M2775 6209 c-16 -5 -73 -16 -125 -24 -141 -23 -398 -88 -549 -140
-801 -274 -1451 -871 -1801 -1653 -98 -220 -177 -483 -237 -792 -27 -141 -28
-155 -28 -470 0 -315 1 -329 28 -470 141 -730 408 -1252 880 -1723 404 -403
878 -666 1452 -807 88 -22 203 -46 255 -55 52 -8 111 -19 130 -25 46 -13 634
-13 680 0 19 6 78 17 130 25 141 23 398 88 549 140 801 274 1451 871 1801
1653 98 220 177 483 237 792 27 141 28 155 28 470 0 315 -1 329 -28 470 -141
730 -408 1252 -880 1723 -404 403 -878 666 -1452 807 -88 22 -203 46 -255 55
-52 8 -111 19 -130 25 -44 13 -643 12 -685 -1z m622 -219 c276 -32 450 -71
679 -151 737 -259 1350 -823 1664 -1531 83 -185 128 -324 112 -340 -10 -10
-109 -13 -456 -13 -409 0 -445 1 -463 18 -11 10 -36 17 -59 18 -21 0 -91 10
-154 23 l-115 23 -5 54 -5 54 -40 5 c-27 3 -36 8 -27 14 19 12 -21 53 -75 77
-47 20 -63 46 -107 166 -34 97 -64 153 -80 153 -9 0 -15 21 -19 71 -7 86 -37
143 -98 185 -42 28 -46 29 -158 27 -64 -1 -343 -22 -621 -47 -278 -25 -692
-62 -920 -81 -563 -48 -553 -46 -623 -124 -68 -75 -70 -86 -75 -298 -4 -181
-11 -227 -26 -168 -8 29 -15 30 -141 11 -49 -8 -93 -12 -97 -10 -3 2 -9 23
-13 46 -4 23 -18 52 -31 65 l-23 23 -471 0 c-258 0 -470 2 -470 4 0 14 89 194
141 284 138 238 279 424 468 612 328 327 688 549 1126 695 227 76 352 102 690
144 123 15 318 12 492 -9z m103 -1447 c53 -5 67 -11 96 -40 25 -25 34 -42 34
-67 0 -47 -52 -92 -117 -102 -26 -4 -367 -7 -758 -7 -741 -1 -822 3 -875 42
-46 34 -39 96 17 138 l36 28 251 6 c377 8 1244 10 1316 2z m-1731 -1155 c1
-30 12 -50 61 -106 33 -38 64 -82 70 -98 7 -16 16 -101 22 -188 10 -153 10
-163 -12 -237 -26 -92 -22 -124 17 -134 15 -3 31 -12 35 -18 25 -40 -3 -409
-47 -612 -44 -204 -150 -599 -184 -688 -6 -16 -11 -32 -11 -36 0 -14 75 -49
130 -60 75 -16 346 -93 455 -131 49 -16 127 -35 172 -41 72 -11 88 -10 128 5
48 19 65 39 65 79 0 13 11 59 25 101 47 144 145 550 175 721 16 93 36 238 45
320 9 83 18 158 21 167 11 36 67 43 364 43 285 -1 555 -21 600 -45 23 -12 50
-60 50 -89 0 -12 -5 -41 -12 -65 -17 -64 -3 -89 62 -111 33 -11 60 -29 78 -51
39 -48 124 -192 183 -309 47 -94 49 -103 41 -145 -11 -58 2 -106 34 -126 20
-14 41 -16 112 -11 146 10 482 86 564 128 58 30 73 59 59 116 -7 26 -27 68
-45 93 -36 48 -355 527 -451 675 -149 231 -205 335 -205 383 0 69 117 206 196
230 22 6 79 15 127 18 l86 7 5 41 c3 23 9 82 13 131 l8 90 55 5 c30 3 66 13
80 23 28 19 129 24 146 7 6 -6 81 -13 170 -17 l159 -6 100 -42 c87 -37 113
-44 200 -50 66 -4 110 -13 130 -24 17 -10 55 -21 85 -24 29 -4 57 -12 62 -19
24 -39 -4 -457 -47 -688 -105 -562 -385 -1092 -794 -1500 -368 -367 -805 -618
-1305 -750 -214 -56 -531 -100 -726 -100 -195 0 -512 44 -726 100 -1008 266
-1788 1046 -2054 2054 -57 218 -100 532 -100 736 l0 118 77 -4 c136 -7 783
-25 918 -26 181 -1 192 2 220 67 13 29 29 55 36 57 7 2 58 -2 112 -9 55 -8
105 -12 112 -9 7 2 15 32 18 66 4 34 10 67 14 73 9 14 20 -30 22 -85z m1684
-477 c17 -16 22 -36 25 -88 4 -64 2 -71 -32 -120 -34 -50 -47 -93 -27 -93 19
0 83 76 106 125 13 28 28 79 32 115 8 61 10 65 33 62 56 -6 120 -81 120 -141
0 -43 -19 -73 -79 -127 -42 -37 -47 -39 -127 -44 -46 -3 -162 -4 -259 -2
l-175 3 -36 77 c-46 96 -51 137 -26 178 38 60 147 86 336 79 74 -2 91 -6 109
-24z"/>
</g>
</svg>
