<?xml version="1.0" standalone="no"?>
<!DOCTYPE svg PUBLIC "-//W3C//DTD SVG 20010904//EN"
 "http://www.w3.org/TR/2001/REC-SVG-20010904/DTD/svg10.dtd">
<svg version="1.0" xmlns="http://www.w3.org/2000/svg"
 width="626.000000pt" height="626.000000pt" viewBox="0 0 626.000000 626.000000"
 preserveAspectRatio="xMidYMid meet">
<metadata>
Created by potrace 1.15, written by Peter Selinger 2001-2017
</metadata>
<g transform="translate(0.000000,626.000000) scale(0.100000,-0.100000)"
fill="#7b7b7b" stroke="none">
<path d="M2775 6209 c-16 -5 -73 -16 -125 -24 -141 -23 -398 -88 -549 -140
-801 -274 -1451 -871 -1801 -1653 -98 -220 -177 -483 -237 -792 -27 -141 -28
-155 -28 -470 0 -315 1 -329 28 -470 141 -730 408 -1252 880 -1723 404 -403
878 -666 1452 -807 88 -22 203 -46 255 -55 52 -8 111 -19 130 -25 46 -13 634
-13 680 0 19 6 78 17 130 25 141 23 398 88 549 140 801 274 1451 871 1801
1653 98 220 177 483 237 792 27 141 28 155 28 470 0 315 -1 329 -28 470 -141
730 -408 1252 -880 1723 -404 403 -878 666 -1452 807 -88 22 -203 46 -255 55
-52 8 -111 19 -130 25 -44 13 -643 12 -685 -1z m622 -219 c201 -23 301 -41
449 -80 1008 -266 1788 -1046 2054 -2054 56 -214 100 -531 100 -726 0 -195
-44 -512 -100 -726 -199 -755 -680 -1380 -1365 -1774 -254 -147 -591 -270
-885 -325 -145 -27 -416 -55 -530 -55 -195 0 -512 44 -726 100 -1008 266
-1788 1046 -2054 2054 -56 214 -100 531 -100 726 0 195 44 512 100 726 132
500 386 942 749 1304 328 327 688 549 1126 695 227 76 352 102 690 144 123 15
318 12 492 -9z"/>
<path d="M4970 5070 c-44 -15 -192 -51 -275 -66 -44 -8 -93 -21 -110 -28 -16
-8 -61 -17 -100 -21 -38 -5 -79 -10 -90 -12 -11 -1 -94 -5 -185 -7 -91 -2
-177 -4 -192 -5 -24 -1 -28 -5 -28 -30 0 -17 5 -33 10 -36 30 -19 -15 -26
-158 -25 -86 1 -229 -2 -318 -6 l-161 -7 -5 71 c-3 40 -10 78 -16 85 -8 9 -42
14 -105 16 -125 3 -136 -9 -128 -135 l2 -31 -343 -6 c-189 -4 -489 -8 -668 -9
l-325 -3 2 48 c2 42 -2 49 -30 71 -18 14 -44 26 -58 28 -15 2 -34 9 -42 16 -8
7 -44 19 -79 26 -52 11 -68 11 -89 0 -42 -21 -47 -35 -50 -123 -3 -72 -1 -85
16 -97 15 -11 19 -28 21 -84 1 -76 0 -77 -63 -82 -18 -1 -33 -6 -33 -11 0 -4
-4 -6 -9 -3 -14 9 -21 -22 -11 -49 5 -14 8 -25 7 -26 -1 0 -126 -3 -277 -5
-239 -4 -277 -7 -288 -21 -8 -12 -12 -61 -12 -159 0 -124 2 -143 17 -148 9 -4
95 -5 190 -2 95 3 173 1 173 -3 0 -8 92 -6 163 4 l37 5 0 -41 c0 -44 19 -68
53 -69 17 0 18 -7 14 -62 -9 -106 -18 -141 -43 -160 -21 -17 -22 -24 -17 -91
3 -39 5 -98 5 -131 -1 -37 4 -63 13 -72 10 -11 15 -11 18 -1 5 11 11 -18 8
-37 -1 -4 3 -14 9 -21 14 -17 22 -113 10 -120 -6 -4 -8 -10 -5 -15 3 -4 -2
-14 -11 -21 -12 -10 -15 -37 -13 -153 1 -78 6 -147 12 -154 6 -8 8 -48 4 -106
-4 -57 -2 -97 4 -103 11 -11 14 -677 3 -695 -9 -14 -8 -135 1 -169 3 -15 17
-31 31 -38 13 -6 24 -15 24 -21 0 -5 14 -10 30 -10 17 0 30 3 30 8 0 4 13 16
29 26 35 24 35 21 15 306 -13 180 -14 311 -9 661 7 434 6 467 -25 489 -4 3
-10 21 -14 41 -5 28 -3 38 9 43 10 4 15 19 15 51 0 44 -1 46 -46 67 -38 19
-44 26 -37 43 4 11 7 66 7 122 0 97 1 101 21 96 44 -10 436 -6 448 6 7 7 74
11 207 11 l196 0 43 -44 c24 -25 54 -47 67 -50 24 -6 24 -8 24 -140 0 -105 3
-136 15 -146 8 -6 17 -21 21 -32 8 -25 73 -85 121 -110 32 -17 53 -19 184 -16
82 2 149 6 149 9 0 3 59 9 132 13 81 4 144 13 163 21 40 20 87 64 80 76 -4 5
-1 9 4 9 8 0 11 -127 13 -402 0 -222 1 -409 1 -415 -1 -7 3 -13 8 -13 10 0 9
-1511 -1 -1540 -4 -13 32 -15 284 -18 245 -2 287 0 283 12 -3 8 -7 360 -8 782
l-2 769 65 1 c36 1 71 4 77 8 6 4 74 6 152 5 105 -1 144 2 149 12 5 7 9 78 9
158 1 112 -2 151 -13 166 -7 10 -11 25 -8 33 3 8 0 17 -6 21 -6 3 -13 26 -17
51 -4 24 -12 49 -19 54 -15 12 -45 101 -48 141 -1 14 -5 25 -9 25 -8 0 -36 76
-43 122 -4 20 -11 38 -16 40 -5 2 -10 30 -12 64 -3 70 24 163 59 200 12 13 19
24 15 24 -4 0 7 11 23 25 17 14 46 41 66 60 19 19 48 37 65 42 16 4 143 9 283
10 l254 4 37 29 c21 17 43 30 50 30 8 0 11 -45 9 -164 -1 -90 1 -169 5 -175 5
-7 48 -11 121 -11 98 0 115 2 124 18 6 9 11 14 11 9 0 -14 50 25 50 39 0 8 7
17 15 20 11 5 15 23 15 75 0 39 -4 69 -10 69 -5 0 -9 3 -8 8 1 4 -5 21 -12 37
-7 17 -12 36 -11 43 1 6 -3 12 -9 12 -6 0 -9 4 -5 9 3 5 1 12 -5 16 -6 4 -10
54 -10 121 0 64 -5 124 -11 135 -6 11 -15 169 -23 372 -12 350 -14 371 -50
415 -22 27 -45 46 -63 50 -38 9 -189 10 -213 2z m177 -108 c29 -18 33 -71 34
-409 0 -190 -1 -346 -3 -348 -2 -1 -33 -5 -70 -8 l-68 -6 0 389 0 390 48 0
c26 0 52 -4 59 -8z m-2049 -1099 c13 -32 8 -236 -5 -240 -7 -3 -15 -20 -19
-39 -3 -19 -10 -37 -15 -40 -5 -3 -9 -17 -9 -31 0 -23 3 -25 32 -19 18 3 36
13 41 21 4 8 19 27 33 42 13 14 24 31 24 37 0 7 9 30 20 51 14 28 22 69 27
137 l6 98 41 0 41 0 -2 -166 c-2 -199 -10 -229 -61 -244 -20 -5 -49 -10 -64
-10 -14 0 -28 -5 -30 -10 -3 -11 -248 -25 -399 -24 l-87 1 -42 41 -42 40 -1
130 -1 130 50 50 c59 59 53 58 292 60 146 2 163 0 170 -15z"/>
</g>
</svg>
