<?xml version="1.0" standalone="no"?>
<!DOCTYPE svg PUBLIC "-//W3C//DTD SVG 20010904//EN"
 "http://www.w3.org/TR/2001/REC-SVG-20010904/DTD/svg10.dtd">
<svg version="1.0" xmlns="http://www.w3.org/2000/svg"
 width="626.000000pt" height="626.000000pt" viewBox="0 0 626.000000 626.000000"
 preserveAspectRatio="xMidYMid meet">
<metadata>
Created by potrace 1.15, written by Peter Selinger 2001-2017
</metadata>
<g transform="translate(0.000000,626.000000) scale(0.100000,-0.100000)"
fill="#7b7b7b" stroke="none">
<path d="M2775 6209 c-16 -5 -73 -16 -125 -24 -141 -23 -398 -88 -549 -140
-801 -274 -1451 -871 -1801 -1653 -98 -220 -177 -483 -237 -792 -27 -141 -28
-155 -28 -470 0 -315 1 -329 28 -470 141 -730 408 -1252 880 -1723 404 -403
878 -666 1452 -807 88 -22 203 -46 255 -55 52 -8 111 -19 130 -25 46 -13 634
-13 680 0 19 6 78 17 130 25 141 23 398 88 549 140 801 274 1451 871 1801
1653 98 220 177 483 237 792 27 141 28 155 28 470 0 315 -1 329 -28 470 -141
730 -408 1252 -880 1723 -404 403 -878 666 -1452 807 -88 22 -203 46 -255 55
-52 8 -111 19 -130 25 -44 13 -643 12 -685 -1z m622 -219 c201 -23 301 -41
449 -80 1008 -266 1787 -1044 2054 -2054 28 -107 70 -320 70 -358 0 -17 -12
-18 -175 -18 -110 0 -175 -4 -175 -10 0 -5 -16 -10 -36 -10 -27 0 -43 -7 -64
-30 -15 -16 -33 -30 -40 -30 -8 0 -11 -11 -8 -30 3 -20 0 -30 -9 -30 -9 0 -13
-18 -13 -65 0 -49 3 -65 14 -65 9 0 12 -7 9 -20 -5 -19 -14 -20 -330 -20
l-324 0 -24 25 c-16 15 -25 36 -25 55 0 16 -4 30 -10 30 -5 0 -10 14 -10 30 0
17 -4 30 -10 30 -6 0 -10 27 -10 60 0 33 -4 60 -10 60 -5 0 -10 9 -10 20 0 11
-5 20 -10 20 -14 0 -60 46 -60 60 0 5 -9 10 -20 10 -11 0 -20 5 -20 10 0 6
-135 10 -386 10 -254 0 -383 3 -379 10 4 6 -13 10 -44 10 -28 0 -51 -4 -51
-10 0 -6 -67 -10 -180 -10 l-180 0 0 129 0 130 53 3 c52 3 52 3 51 36 -2 25 2
32 16 32 11 0 22 5 25 10 8 14 545 14 545 0 0 -6 30 -10 69 -10 l70 0 3 -32
c2 -25 8 -34 26 -36 12 -2 20 -8 17 -13 -4 -5 5 -9 19 -9 14 0 26 -4 26 -10 0
-6 133 -10 380 -10 247 0 380 4 380 10 0 6 14 10 30 10 17 0 30 5 30 10 0 6 9
10 20 10 11 0 20 7 20 15 0 12 13 15 60 15 41 0 60 4 61 13 0 9 2 9 6 0 2 -7
21 -13 40 -13 36 0 62 -20 63 -48 1 -57 120 -54 120 2 0 9 5 16 10 16 6 0 10
20 10 45 0 33 4 45 15 45 13 0 15 27 15 185 0 158 -2 185 -15 185 -11 0 -15
11 -15 40 0 22 -4 40 -10 40 -5 0 -10 7 -10 16 0 25 -26 44 -60 44 -32 0 -60
-19 -60 -40 0 -22 -29 -40 -64 -40 -22 0 -36 -5 -37 -12 0 -10 -2 -10 -6 0 -3
8 -26 12 -64 12 -33 0 -59 4 -59 10 0 6 -9 10 -20 10 -11 0 -20 5 -20 10 0 6
-9 10 -20 10 -11 0 -20 5 -20 10 0 6 -139 10 -398 10 -386 0 -399 -1 -417 -20
-10 -11 -26 -20 -37 -20 -13 0 -18 -8 -18 -30 l0 -30 -90 0 c-53 0 -90 -4 -90
-10 0 -6 -90 -10 -250 -10 -247 0 -251 0 -273 23 -12 12 -21 30 -19 40 3 16
-10 17 -163 17 l-167 0 -28 30 c-17 18 -38 30 -54 30 -25 0 -26 2 -26 55 0 48
2 55 20 55 15 0 20 7 20 29 0 17 -6 31 -16 35 -20 8 -358 8 -378 0 -22 -8 -20
-37 4 -54 16 -11 20 -26 20 -67 0 -50 -1 -53 -26 -53 -16 0 -37 -12 -54 -30
-22 -24 -36 -30 -70 -30 -37 0 -41 -2 -35 -20 6 -20 2 -20 -234 -20 -154 0
-241 -4 -241 -10 0 -5 -11 -10 -25 -10 -14 0 -25 5 -25 10 0 6 -75 10 -205 10
-130 0 -205 4 -205 10 0 6 -40 10 -100 10 -93 0 -100 -1 -100 -20 0 -15 -7
-20 -29 -20 -16 0 -32 -6 -34 -12 -3 -7 -6 2 -6 20 l-1 32 -89 0 c-50 0 -93 5
-96 10 -3 6 -22 10 -41 10 l-34 0 0 -270 0 -270 34 0 c21 0 36 6 40 15 4 12
25 15 96 15 l90 0 1 33 c0 17 3 26 6 20 2 -7 18 -13 34 -13 22 0 29 -5 29 -20
0 -19 7 -20 100 -20 60 0 100 4 100 10 0 6 71 10 193 10 181 0 195 1 212 20
23 25 47 25 65 0 8 -12 26 -20 42 -20 l28 0 0 -155 0 -155 -620 0 c-613 0
-620 0 -620 20 0 16 7 20 30 20 27 0 30 3 30 30 0 17 5 30 10 30 6 0 10 14 10
30 0 28 -2 30 -40 30 -33 0 -40 -3 -40 -20 0 -20 -7 -20 -295 -20 -279 0 -295
1 -295 18 0 30 65 259 108 377 143 400 368 753 671 1055 328 327 688 549 1126
695 227 76 352 102 690 144 123 15 318 12 492 -9z m2483 -3130 c25 -26 47 -40
64 -40 24 0 26 -4 26 -39 0 -60 -45 -292 -82 -421 l-33 -115 -47 -3 c-29 -2
-48 1 -48 7 0 7 -44 11 -125 11 -77 0 -125 4 -125 10 0 6 -72 10 -195 10 -123
0 -195 4 -195 10 0 6 -17 10 -38 10 -42 0 -62 14 -62 42 0 10 -6 21 -13 24 -9
3 -12 16 -9 34 3 22 0 30 -10 30 -10 0 -13 9 -10 30 3 23 0 30 -12 30 -12 0
-14 7 -9 30 4 23 2 30 -11 30 -11 0 -16 9 -16 30 0 17 -4 30 -10 30 -5 0 -10
9 -10 20 0 11 -4 20 -10 20 -5 0 -10 11 -10 25 0 14 -4 25 -10 25 -5 0 -10 14
-10 30 0 17 -4 30 -10 30 -5 0 -10 9 -10 20 0 11 5 20 10 20 6 0 10 7 10 15 0
9 11 27 25 40 13 14 31 25 40 25 8 0 15 5 15 10 0 7 155 10 446 10 l446 0 38
-40z m-4534 -34 c8 -8 14 -31 14 -50 0 -20 5 -36 10 -36 6 0 10 -13 10 -30 0
-16 5 -30 10 -30 6 0 10 -16 10 -35 0 -19 5 -35 10 -35 6 0 10 -82 10 -225 0
-143 -4 -225 -10 -225 -6 0 -10 -32 -10 -75 0 -43 -4 -75 -10 -75 -5 0 -10
-18 -10 -40 0 -22 -4 -40 -10 -40 -5 0 -10 -13 -10 -29 0 -16 -6 -31 -15 -35
-25 -9 -18 -36 10 -36 14 0 25 -4 25 -10 0 -5 18 -10 40 -10 22 0 40 -4 40
-10 0 -5 18 -10 39 -10 22 0 43 -4 46 -10 3 -5 28 -10 56 -10 37 0 49 -4 49
-15 0 -11 11 -15 40 -15 22 0 40 -4 40 -10 0 -5 18 -10 40 -10 22 0 40 -4 40
-10 0 -5 20 -10 45 -10 25 0 45 -4 45 -10 0 -5 23 -10 50 -10 28 0 50 -4 50
-10 0 -5 18 -10 40 -10 22 0 40 -4 40 -10 0 -5 20 -10 45 -10 25 0 45 -4 45
-10 0 -5 18 -10 40 -10 22 0 40 -4 40 -10 0 -6 40 -10 100 -10 l100 0 0 30 c0
17 5 30 10 30 6 0 10 25 10 55 0 30 5 55 10 55 6 0 10 27 10 60 0 33 4 60 10
60 6 0 10 33 10 80 0 47 4 80 10 80 6 0 10 71 11 193 0 105 3 186 6 180 2 -7
11 -13 20 -13 21 0 43 -25 43 -49 0 -12 5 -21 10 -21 6 0 10 -9 10 -20 0 -11
5 -20 10 -20 6 0 10 -9 10 -20 0 -13 7 -20 20 -20 11 0 20 -4 20 -10 0 -5 9
-10 20 -10 17 0 20 7 20 40 0 22 -4 40 -10 40 -5 0 -10 9 -10 19 0 11 -4 23
-10 26 -17 10 -11 25 10 25 11 0 20 5 20 10 0 6 9 10 20 10 19 0 20 7 20 106
0 78 4 109 14 120 12 11 55 14 216 14 200 0 201 0 225 -25 24 -23 25 -30 25
-152 0 -117 2 -130 20 -143 11 -8 20 -22 20 -32 0 -11 7 -18 18 -18 10 0 24
-9 32 -20 8 -11 25 -20 37 -20 13 0 23 -4 23 -10 0 -6 92 -10 255 -10 163 0
255 4 255 10 0 6 7 10 15 10 20 0 85 65 85 85 0 9 9 15 25 15 14 0 25 -4 25
-10 0 -6 37 -10 90 -10 53 0 90 -4 90 -10 0 -5 9 -10 20 -10 27 0 66 -40 62
-62 -2 -11 3 -18 11 -18 12 0 14 -9 10 -40 -5 -33 -3 -40 11 -40 13 0 16 -12
16 -65 0 -37 4 -65 10 -65 6 0 10 -30 10 -70 0 -40 4 -70 10 -70 6 0 10 -38
10 -95 0 -57 4 -95 10 -95 6 0 10 -18 10 -39 0 -40 0 -40 47 -47 63 -9 357 4
361 16 2 6 21 10 43 10 21 0 39 5 39 10 0 6 14 10 30 10 17 0 30 5 30 10 0 6
16 10 36 10 21 0 33 4 29 10 -4 6 8 10 29 10 20 0 36 5 36 10 0 6 9 10 20 10
11 0 20 5 20 10 0 6 7 10 16 10 18 0 44 23 44 39 0 6 5 11 10 11 6 0 10 9 10
20 0 11 5 20 10 20 6 0 10 9 10 20 0 12 7 20 16 20 11 0 14 5 10 16 -9 22 18
44 53 44 17 0 31 5 31 10 0 6 32 10 75 10 43 0 75 -4 75 -10 0 -6 40 -10 99
-10 83 0 100 -3 105 -16 8 -20 -85 -191 -188 -349 -291 -442 -728 -816 -1206
-1030 -205 -92 -455 -172 -660 -210 -145 -27 -416 -55 -530 -55 -195 0 -512
44 -726 100 -1008 266 -1786 1044 -2054 2054 -26 97 -57 256 -74 379 l-5 37
95 0 c56 0 94 -4 94 -10 0 -6 50 -10 130 -10 80 0 130 4 130 10 0 6 38 10 95
10 57 0 95 4 95 10 0 6 79 10 216 10 173 0 218 -3 230 -14z m2309 -186 c-3 -5
-1 -10 5 -10 21 0 36 -24 32 -52 -3 -19 0 -28 9 -28 10 0 14 -14 14 -50 0 -36
-4 -50 -14 -50 -9 0 -12 -9 -9 -29 3 -22 -2 -33 -19 -46 -13 -10 -23 -26 -23
-37 0 -17 6 -19 53 -16 42 2 52 6 52 21 0 10 6 21 13 26 7 4 10 15 6 24 -4 12
-1 17 10 17 14 0 16 15 16 100 0 80 -3 100 -14 100 -9 0 -14 9 -13 20 1 17 8
20 44 20 36 0 43 -3 43 -20 0 -13 7 -20 18 -20 10 0 24 -9 32 -20 8 -11 20
-20 28 -20 7 0 10 -4 7 -10 -3 -5 -1 -10 4 -10 7 0 11 -30 11 -80 0 -54 -4
-80 -12 -80 -6 0 -9 -3 -6 -6 9 -8 -69 -84 -87 -84 -8 0 -15 -4 -15 -10 0 -6
-70 -10 -190 -10 -120 0 -190 4 -190 10 0 6 -13 10 -30 10 -16 0 -30 5 -30 10
0 6 -7 10 -16 10 -21 0 -64 49 -64 73 0 9 -4 17 -10 17 -6 0 -10 47 -10 120
l0 120 181 0 c117 0 178 -3 174 -10z"/>
</g>
</svg>
